<svg xmlns="http://www.w3.org/2000/svg" xmlns:xlink="http://www.w3.org/1999/xlink" xmlns:lucid="lucid" width="1008.37" height="508"><g transform="translate(-171.63424928071632 -340)" lucid:page-tab-id="0_0"><path d="M610 646a6 6 0 0 1 6-6h148a6 6 0 0 1 6 6v176a6 6 0 0 1-6 6H616a6 6 0 0 1-6-6z" fill="#fff"/><path d="M610 646a6 6 0 0 1 6-6h148a6 6 0 0 1 6 6v176a6 6 0 0 1-6 6H616a6 6 0 0 1-6-6zM610 680h160" stroke="#3a414a" fill="none"/><use xlink:href="#a" transform="matrix(1,0,0,1,620,640) translate(43.044444444444444 27.9)"/><use xlink:href="#b" transform="matrix(1,0,0,1,615,682.5) translate(0 23.9)"/><use xlink:href="#c" transform="matrix(1,0,0,1,615,719.5) translate(0 23.9)"/><use xlink:href="#d" transform="matrix(1,0,0,1,615,756.5) translate(0 23.9)"/><use xlink:href="#e" transform="matrix(1,0,0,1,615,793.5) translate(0 23.9)"/><path d="M610 366a6 6 0 0 1 6-6h148a6 6 0 0 1 6 6v213a6 6 0 0 1-6 6H616a6 6 0 0 1-6-6z" fill="#fff"/><path d="M610 366a6 6 0 0 1 6-6h148a6 6 0 0 1 6 6v213a6 6 0 0 1-6 6H616a6 6 0 0 1-6-6zM610 400h160" stroke="#3a414a" fill="none"/><use xlink:href="#f" transform="matrix(1,0,0,1,620,360.00000000000006) translate(30.699999999999996 27.9)"/><use xlink:href="#g" transform="matrix(1,0,0,1,615,402.50000000000006) translate(0 23.9)"/><use xlink:href="#c" transform="matrix(1,0,0,1,615,439.50000000000006) translate(0 23.9)"/><use xlink:href="#h" transform="matrix(1,0,0,1,615,476.50000000000006) translate(0 23.9)"/><use xlink:href="#i" transform="matrix(1,0,0,1,615,513.5) translate(0 23.9)"/><use xlink:href="#j" transform="matrix(1,0,0,1,615,550.5) translate(0 23.9)"/><path d="M810.97 692.32l-.08 1-.25 1-.4.93-.52.87-.66.78-.78.66-.88.53-.94.38-1 .25-15.03.07v-1l14.9-.07.82-.2.8-.33.73-.45.66-.56.56-.67.45-.73.33-.8.2-.84.07-.88-.03-79.03h1zM805.5 492.2l.98.23.94.4.87.53.77.66.66.78.53.87.4.94.24 1.02.03 80.07h-1l-.03-79.96-.2-.82-.33-.8-.45-.73-.56-.67-.66-.56-.73-.45-.8-.33-.84-.2-.88-.08h-14.57v-1h14.6z" stroke="#3a414a" stroke-width=".05" fill="#3a414a"/><path d="M770.7 482.62l20 10-20 10" fill="#fff" fill-opacity="0"/><path d="M791.8 492.62l-20.88 10.44-.45-.9 19.1-9.54-19.1-9.56.45-.9z" stroke="#3a414a" stroke-width=".05" fill="#3a414a"/><path fill="#fff"/><path d="M790.7 493.12h-20v-1h20z" stroke="#3a414a" stroke-width=".05" fill="#3a414a"/><path fill="#fff"/><path d="M790.95 708.3h-1v-20h1z" stroke="#3a414a" stroke-width=".05" fill="#3a414a"/><path fill="#fff"/><path d="M790.45 698.8h-20v-1h20z" stroke="#3a414a" stroke-width=".05" fill="#3a414a"/><use xlink:href="#k" transform="matrix(1,0,0,1,772.5590279439001,577.6924442869879) translate(17.925000000000004 13.066666666666666)"/><use xlink:href="#l" transform="matrix(1,0,0,1,772.5590279439001,577.6924442869879) translate(0.005000000000002558 30.844444444444445)"/><use xlink:href="#m" transform="matrix(1,0,0,1,772.5590279439001,577.6924442869879) translate(27.596111111111114 30.844444444444445)"/><path d="M300 366a6 6 0 0 1 6-6h148a6 6 0 0 1 6 6v213a6 6 0 0 1-6 6H306a6 6 0 0 1-6-6z" fill="#fff"/><path d="M300 366a6 6 0 0 1 6-6h148a6 6 0 0 1 6 6v213a6 6 0 0 1-6 6H306a6 6 0 0 1-6-6zM300 400h160" stroke="#3a414a" fill="none"/><use xlink:href="#n" transform="matrix(1,0,0,1,310,360) translate(7.222222222222214 27.9)"/><use xlink:href="#o" transform="matrix(1,0,0,1,305,402.5) translate(0 23.9)"/><use xlink:href="#c" transform="matrix(1,0,0,1,305,439.5) translate(0 23.9)"/><use xlink:href="#p" transform="matrix(1,0,0,1,305,476.5) translate(0 23.9)"/><use xlink:href="#q" transform="matrix(1,0,0,1,305,513.5) translate(0 23.9)"/><use xlink:href="#r" transform="matrix(1,0,0,1,305,550.5) translate(0 23.9)"/><path d="M535.5 561.1l-.07 1-.24 1-.4.93-.53.87-.67.78-.77.66-.87.54-.94.4-1 .23-50.1.08v-1l49.97-.07.8-.2.8-.32.74-.45.65-.56.56-.66.45-.72.34-.8.2-.84.07-.88.04-59.54h1zm54.02-142.43h-48.5l-.87.07-.84.2-.8.34-.72.45-.66.56-.56.64-.45.74-.32.8-.2.82-.03 60.44h-1l.03-60.56.24-1 .4-.96.53-.87.66-.77.8-.67.86-.52.94-.4 1-.23 1-.08h48.52z" stroke="#3a414a" stroke-width=".05" fill="#3a414a"/><path fill="#fff"/><path d="M590.02 428.17h-1v-20h1z" stroke="#3a414a" stroke-width=".05" fill="#3a414a"/><path fill="#fff"/><path d="M609.52 418.67h-20v-1h20z" stroke="#3a414a" stroke-width=".05" fill="#3a414a"/><path d="M460.72 557.08l20 10-20 10" fill="#fff" fill-opacity="0"/><path d="M481.84 567.08l-20.9 10.45-.44-.9 19.1-9.55-19.1-9.55.44-.9z" stroke="#3a414a" stroke-width=".05" fill="#3a414a"/><path fill="#fff"/><path d="M480.72 567.58h-20v-1h20z" stroke="#3a414a" stroke-width=".05" fill="#3a414a"/><use xlink:href="#s" transform="matrix(1,0,0,1,500.12695814379845,483.73977795927067) translate(0 13.066666666666666)"/><use xlink:href="#t" transform="matrix(1,0,0,1,500.12695814379845,483.73977795927067) translate(54.364444444444445 13.066666666666666)"/><path d="M980 506a6 6 0 0 1 6-6h168a6 6 0 0 1 6 6v102a6 6 0 0 1-6 6H986a6 6 0 0 1-6-6z" fill="#fff"/><path d="M980 506a6 6 0 0 1 6-6h168a6 6 0 0 1 6 6v102a6 6 0 0 1-6 6H986a6 6 0 0 1-6-6zM980 540h180" stroke="#3a414a" fill="none"/><use xlink:href="#u" transform="matrix(1,0,0,1,990,500) translate(21.133333333333326 27.9)"/><use xlink:href="#g" transform="matrix(1,0,0,1,985,542.5) translate(0 23.9)"/><use xlink:href="#b" transform="matrix(1,0,0,1,985,579.5) translate(0 23.9)"/><path d="M260.48 646a6 6 0 0 1 6-6h188a6 6 0 0 1 6 6v139a6 6 0 0 1-6 6h-188a6 6 0 0 1-6-6z" fill="#fff"/><path d="M260.48 646a6 6 0 0 1 6-6h188a6 6 0 0 1 6 6v139a6 6 0 0 1-6 6h-188a6 6 0 0 1-6-6zM260.48 680h200" stroke="#3a414a" fill="none"/><use xlink:href="#v" transform="matrix(1,0,0,1,270.4819641167854,640) translate(19.6111111111111 27.9)"/><use xlink:href="#b" transform="matrix(1,0,0,1,265.4819641167854,682.5) translate(0 23.9)"/><use xlink:href="#o" transform="matrix(1,0,0,1,265.4819641167854,719.5) translate(0 23.9)"/><use xlink:href="#p" transform="matrix(1,0,0,1,265.4819641167854,756.5) translate(0 23.9)"/><path d="M220.53 729.57l.07.88.2.84.33.8.45.72.56.66.66.56.73.45.8.32.82.2 15.47.07v1l-15.6-.08-1-.25-.94-.4-.87-.52-.77-.66-.66-.8-.53-.86-.4-.94-.23-1-.07-1 .03-140.46h1zm59-310.9h-53.48l-.88.07-.84.2-.8.34-.73.45-.66.56-.56.64-.45.74-.33.8-.2.82-.02 101.84h-1l.02-101.96.25-1 .4-.96.52-.87.66-.77.78-.67.88-.52.94-.4 1-.23 1-.08h53.5z" stroke="#3a414a" stroke-width=".05" fill="#3a414a"/><path fill="#fff"/><path d="M280.02 428.17h-1v-20h1z" stroke="#3a414a" stroke-width=".05" fill="#3a414a"/><path fill="#fff"/><path d="M299.52 418.67h-20v-1h20z" stroke="#3a414a" stroke-width=".05" fill="#3a414a"/><path d="M259.8 745.6l-20-10 20-10" fill="#fff" fill-opacity="0"/><path d="M260.03 726.04l-19.1 9.55 19.1 9.54-.45.9-20.9-10.45 20.9-10.46z" stroke="#3a414a" stroke-width=".05" fill="#3a414a"/><path fill="#fff"/><path d="M259.8 736.1h-20v-1h20z" stroke="#3a414a" stroke-width=".05" fill="#3a414a"/><use xlink:href="#w" transform="matrix(1,0,0,1,177.63424928071632,525.1382399843008) translate(22.893888888888892 14.222222222222223)"/><use xlink:href="#x" transform="matrix(1,0,0,1,177.63424928071632,525.1382399843008) translate(35.01734567901235 35.55555555555556)"/><use xlink:href="#y" transform="matrix(1,0,0,1,177.63424928071632,525.1382399843008) translate(0.005000000000002558 56.88888888888889)"/><path d="M875.5 552.5l.06.87.2.84.33.8.44.74.56.66.66.56.73.45.8.34.8.2 80.03.07v1l-80.14-.07-1.02-.24-.94-.4-.87-.53-.78-.67-.67-.77-.53-.87-.4-.94-.23-1-.08-1-.04-46.4h1zM870 417.77l1 .24.94.4.87.52.8.66.65.78.53.87.4.94.24 1 .02 47.38h-1l-.02-47.26-.2-.82-.33-.8-.46-.73-.56-.66-.66-.55-.73-.45-.8-.33-.85-.2-.88-.07h-78.53v-1H869z" stroke="#3a414a" stroke-width=".05" fill="#3a414a"/><path fill="#fff"/><path d="M790.94 428.2h-1v-20h1z" stroke="#3a414a" stroke-width=".05" fill="#3a414a"/><path fill="#fff"/><path d="M790.44 418.7h-20v-1h20z" stroke="#3a414a" stroke-width=".05" fill="#3a414a"/><path d="M979.3 568.5l-20-10 20-10" fill="#fff" fill-opacity="0"/><path d="M979.54 548.95l-19.1 9.56 19.1 9.56-.45.9-20.9-10.45 20.9-10.44z" stroke="#3a414a" stroke-width=".05" fill="#3a414a"/><path fill="#fff"/><path d="M979.3 559h-20v-1h20z" stroke="#3a414a" stroke-width=".05" fill="#3a414a"/><use xlink:href="#z" transform="matrix(1,0,0,1,827.6488465594259,470.5760847469586) translate(38.671666666666674 13.066666666666666)"/><use xlink:href="#A" transform="matrix(1,0,0,1,827.6488465594259,470.5760847469586) translate(0.005000000000002558 30.844444444444445)"/><use xlink:href="#B" transform="matrix(1,0,0,1,827.6488465594259,470.5760847469586) translate(77.40944444444446 30.844444444444445)"/><path d="M497.04 698.8h-16.7v-1h16.7zm92.48 0h-16.1v-1h16.1z" stroke="#3a414a" stroke-width=".05" fill="#3a414a"/><path fill="#fff"/><path d="M590.02 708.3h-1v-20h1z" stroke="#3a414a" stroke-width=".05" fill="#3a414a"/><path fill="#fff"/><path d="M609.52 698.8h-20v-1h20z" stroke="#3a414a" stroke-width=".05" fill="#3a414a"/><path d="M461.16 688.3l20 10-20 10" fill="#fff" fill-opacity="0"/><path d="M482.28 698.3l-20.9 10.44-.44-.9 19.1-9.55-19.1-9.56.44-.9z" stroke="#3a414a" stroke-width=".05" fill="#3a414a"/><path fill="#fff"/><path d="M481.16 698.8h-20v-1h20z" stroke="#3a414a" stroke-width=".05" fill="#3a414a"/><use xlink:href="#C" transform="matrix(1,0,0,1,497.04232986907147,689.3989341296176) translate(0 13.066666666666666)"/><use xlink:href="#D" transform="matrix(1,0,0,1,497.04232986907147,689.3989341296176) translate(37.95555555555556 13.066666666666666)"/><path d="M875.43 693.3l-.24 1-.4.95-.53.87-.67.78-.77.66-.87.53-.94.38-1 .24-1 .08h-78.57v-1H869l.87-.07.84-.2.8-.33.74-.45.65-.56.55-.67.46-.73.34-.8.2-.82.02-37.3h1zm84.72-97.1l-80.02.06-.82.2-.8.33-.73.44-.65.56-.56.65-.45.74-.32.8-.2.83-.07.88-.02 36.4h-1l.03-36.43.08-1 .24-1 .4-.94.53-.87.66-.77.78-.67.87-.54.95-.4 1-.24 80.15-.07z" stroke="#3a414a" stroke-width=".05" fill="#3a414a"/><path fill="#fff"/><path d="M790.95 708.3h-1v-20h1z" stroke="#3a414a" stroke-width=".05" fill="#3a414a"/><path fill="#fff"/><path d="M790.45 698.8h-20v-1h20z" stroke="#3a414a" stroke-width=".05" fill="#3a414a"/><path d="M979.34 605.7l-20-10 20-10" fill="#fff" fill-opacity="0"/><path d="M979.56 586.13l-19.1 9.56 19.1 9.54-.44.9-20.9-10.45 20.9-10.46z" stroke="#3a414a" stroke-width=".05" fill="#3a414a"/><path fill="#fff"/><path d="M979.34 596.2h-20v-1h20z" stroke="#3a414a" stroke-width=".05" fill="#3a414a"/><g><use xlink:href="#E" transform="matrix(1,0,0,1,834.7308102207468,638.1048078188645) translate(0 13.066666666666666)"/><use xlink:href="#F" transform="matrix(1,0,0,1,834.7308102207468,638.1048078188645) translate(65.35111111111112 13.066666666666666)"/></g><defs><path fill="#3a414a" d="M255-63c-77-1-135-26-139-100H31C37-39 123 10 250 11c121-3 220-40 220-162 0-170-222-124-322-201-10-10-16-21-16-36 3-54 55-64 110-66 66 2 114 25 120 87h85c-7-119-87-165-212-162-105 3-193 42-193 147 0 164 213 126 313 192 17 11 25 28 25 50-2 64-61 75-125 77" id="G"/><path fill="#3a414a" d="M285-75c-52-1-103 12-103-46v-321h103v-75H182v-155H97v155H9v75h88v329C86 1 173 6 285 0v-75" id="H"/><path fill="#3a414a" d="M469-121c-4 47 8 69 53 53v66c-15 9-35 13-61 13-48-1-73-27-72-79-41 50-99 78-182 79C105 9 38-31 36-133c-2-160 166-152 297-179 29-9 52-21 52-56 0-67-49-86-115-86-74 2-127 23-129 98H56c6-123 92-171 219-173 110 0 194 31 194 142v266zM226-63c89-2 158-38 158-117v-87c-78 50-257 1-258 128 2 56 43 75 100 76" id="I"/><path fill="#3a414a" d="M297-714C195-740 92-701 99-594v77H12v75h87V0h85v-442h100v-75H184v-72c-7-64 64-64 113-51v-74" id="J"/><g id="a"><use transform="matrix(0.022222222222222223,0,0,0.022222222222222223,0,0)" xlink:href="#G"/><use transform="matrix(0.022222222222222223,0,0,0.022222222222222223,11.11111111111111,0)" xlink:href="#H"/><use transform="matrix(0.022222222222222223,0,0,0.022222222222222223,18.11111111111111,0)" xlink:href="#I"/><use transform="matrix(0.022222222222222223,0,0,0.022222222222222223,30.044444444444444,0)" xlink:href="#J"/><use transform="matrix(0.022222222222222223,0,0,0.022222222222222223,36.22222222222222,0)" xlink:href="#J"/><use transform="matrix(0.022222222222222223,0,0,0.022222222222222223,42.8,0)" xlink:href="#G"/></g><path fill="#3a414a" d="M154-610v-104H69v104h85zm-85 93V0h85v-517H69" id="K"/><path fill="#3a414a" d="M286-63c-111 0-160-82-160-191 0-113 41-200 155-200 115 0 163 82 163 196 0 111-46 195-158 195zm-12 74c77 0 140-28 167-81V0h85v-714h-85c-1 88 3 181-2 266-32-50-89-81-167-81-160 0-236 109-236 269S113 5 274 11" id="L"/><g id="b"><use transform="matrix(0.022222222222222223,0,0,0.022222222222222223,0,0)" xlink:href="#G"/><use transform="matrix(0.022222222222222223,0,0,0.022222222222222223,11.11111111111111,0)" xlink:href="#K"/><use transform="matrix(0.022222222222222223,0,0,0.022222222222222223,16.044444444444444,0)" xlink:href="#L"/></g><path fill="#3a414a" d="M492-340c1-123-54-189-178-189-78-1-132 34-170 94v-82H64V0h85v-292c3-100 51-160 153-162 64-1 106 40 105 104V0h85v-340" id="M"/><path fill="#3a414a" d="M455-441c-17-59-71-87-142-88-74-1-128 32-169 88v-76H64V0h85v-322c9-75 54-129 138-132 72-1 97 44 97 115V0h85v-322c-1-80 53-133 135-132 74-1 100 42 100 115V0h85v-379c-1-106-66-149-172-150-75 1-132 38-162 88" id="N"/><path fill="#3a414a" d="M126-308c4-104 97-175 206-134 52 20 85 67 91 134H126zm-90 48C36-97 116 8 284 11c124-1 201-66 221-175h-84c-6 116-197 130-258 50-25-28-38-69-37-119h387c-1-167-66-296-234-296-157 0-243 109-243 269" id="O"/><g id="c"><use transform="matrix(0.022222222222222223,0,0,0.022222222222222223,0,0)" xlink:href="#M"/><use transform="matrix(0.022222222222222223,0,0,0.022222222222222223,12.355555555555556,0)" xlink:href="#I"/><use transform="matrix(0.022222222222222223,0,0,0.022222222222222223,24.28888888888889,0)" xlink:href="#N"/><use transform="matrix(0.022222222222222223,0,0,0.022222222222222223,43.24444444444445,0)" xlink:href="#O"/></g><path fill="#3a414a" d="M69-714V0h85v-714H69" id="P"/><g id="d"><use transform="matrix(0.022222222222222223,0,0,0.022222222222222223,0,0)" xlink:href="#O"/><use transform="matrix(0.022222222222222223,0,0,0.022222222222222223,11.933333333333334,0)" xlink:href="#N"/><use transform="matrix(0.022222222222222223,0,0,0.022222222222222223,30.88888888888889,0)" xlink:href="#I"/><use transform="matrix(0.022222222222222223,0,0,0.022222222222222223,42.82222222222222,0)" xlink:href="#K"/><use transform="matrix(0.022222222222222223,0,0,0.022222222222222223,47.75555555555556,0)" xlink:href="#P"/></g><path fill="#3a414a" d="M82-714V0h95v-714H82" id="Q"/><path fill="#3a414a" d="M333-529c-106-2-150 48-192 121v-109H61V0h85v-230c-1-133 53-210 187-209v-90" id="R"/><path fill="#3a414a" d="M242 11c86 0 134-37 170-93V0h80v-517h-85v292c-3 100-51 160-153 162-64 1-106-40-105-104v-350H64v340C63-54 118 12 242 11" id="S"/><path fill="#3a414a" d="M287-454c74 0 115 40 128 103h88c-15-118-93-178-223-178-166 0-244 111-244 277C36-90 116 8 278 11c137 0 211-78 228-200h-87c-10 77-56 126-142 126-107-4-151-82-151-189 0-117 43-200 161-202" id="T"/><path fill="#3a414a" d="M287-63c-109 0-161-80-161-195 0-114 52-196 161-196s161 82 161 196c0 115-52 195-161 195zm0-466C122-529 36-423 36-258S122 11 287 11c166 0 251-105 251-269 0-165-85-271-251-271" id="U"/><g id="e"><use transform="matrix(0.022222222222222223,0,0,0.022222222222222223,0,0)" xlink:href="#K"/><use transform="matrix(0.022222222222222223,0,0,0.022222222222222223,4.933333333333334,0)" xlink:href="#G"/><use transform="matrix(0.022222222222222223,0,0,0.022222222222222223,16.044444444444444,0)" xlink:href="#Q"/><use transform="matrix(0.022222222222222223,0,0,0.022222222222222223,21.8,0)" xlink:href="#M"/><use transform="matrix(0.022222222222222223,0,0,0.022222222222222223,34.15555555555556,0)" xlink:href="#G"/><use transform="matrix(0.022222222222222223,0,0,0.022222222222222223,45.266666666666666,0)" xlink:href="#H"/><use transform="matrix(0.022222222222222223,0,0,0.022222222222222223,52.266666666666666,0)" xlink:href="#R"/><use transform="matrix(0.022222222222222223,0,0,0.022222222222222223,59.66666666666667,0)" xlink:href="#S"/><use transform="matrix(0.022222222222222223,0,0,0.022222222222222223,72.02222222222223,0)" xlink:href="#T"/><use transform="matrix(0.022222222222222223,0,0,0.022222222222222223,83.95555555555556,0)" xlink:href="#H"/><use transform="matrix(0.022222222222222223,0,0,0.022222222222222223,90.95555555555556,0)" xlink:href="#U"/><use transform="matrix(0.022222222222222223,0,0,0.022222222222222223,103.71111111111111,0)" xlink:href="#R"/></g><g id="f"><use transform="matrix(0.022222222222222223,0,0,0.022222222222222223,0,0)" xlink:href="#T"/><use transform="matrix(0.022222222222222223,0,0,0.022222222222222223,11.933333333333334,0)" xlink:href="#U"/><use transform="matrix(0.022222222222222223,0,0,0.022222222222222223,24.68888888888889,0)" xlink:href="#S"/><use transform="matrix(0.022222222222222223,0,0,0.022222222222222223,37.044444444444444,0)" xlink:href="#R"/><use transform="matrix(0.022222222222222223,0,0,0.022222222222222223,44.44444444444444,0)" xlink:href="#G"/><use transform="matrix(0.022222222222222223,0,0,0.022222222222222223,55.55555555555556,0)" xlink:href="#O"/><use transform="matrix(0.022222222222222223,0,0,0.022222222222222223,67.4888888888889,0)" xlink:href="#G"/></g><g id="g"><use transform="matrix(0.022222222222222223,0,0,0.022222222222222223,0,0)" xlink:href="#T"/><use transform="matrix(0.022222222222222223,0,0,0.022222222222222223,11.933333333333334,0)" xlink:href="#K"/><use transform="matrix(0.022222222222222223,0,0,0.022222222222222223,16.866666666666667,0)" xlink:href="#L"/></g><g id="h"><use transform="matrix(0.022222222222222223,0,0,0.022222222222222223,0,0)" xlink:href="#K"/><use transform="matrix(0.022222222222222223,0,0,0.022222222222222223,4.933333333333334,0)" xlink:href="#M"/><use transform="matrix(0.022222222222222223,0,0,0.022222222222222223,17.28888888888889,0)" xlink:href="#G"/><use transform="matrix(0.022222222222222223,0,0,0.022222222222222223,28.400000000000002,0)" xlink:href="#H"/><use transform="matrix(0.022222222222222223,0,0,0.022222222222222223,35.400000000000006,0)" xlink:href="#R"/><use transform="matrix(0.022222222222222223,0,0,0.022222222222222223,42.800000000000004,0)" xlink:href="#S"/><use transform="matrix(0.022222222222222223,0,0,0.022222222222222223,55.15555555555556,0)" xlink:href="#T"/><use transform="matrix(0.022222222222222223,0,0,0.022222222222222223,67.08888888888889,0)" xlink:href="#H"/><use transform="matrix(0.022222222222222223,0,0,0.022222222222222223,74.08888888888889,0)" xlink:href="#U"/><use transform="matrix(0.022222222222222223,0,0,0.022222222222222223,86.84444444444445,0)" xlink:href="#R"/></g><g id="i"><use transform="matrix(0.022222222222222223,0,0,0.022222222222222223,0,0)" xlink:href="#G"/><use transform="matrix(0.022222222222222223,0,0,0.022222222222222223,11.11111111111111,0)" xlink:href="#O"/><use transform="matrix(0.022222222222222223,0,0,0.022222222222222223,23.044444444444444,0)" xlink:href="#N"/><use transform="matrix(0.022222222222222223,0,0,0.022222222222222223,42,0)" xlink:href="#O"/><use transform="matrix(0.022222222222222223,0,0,0.022222222222222223,53.93333333333334,0)" xlink:href="#G"/><use transform="matrix(0.022222222222222223,0,0,0.022222222222222223,65.04444444444445,0)" xlink:href="#H"/><use transform="matrix(0.022222222222222223,0,0,0.022222222222222223,72.04444444444445,0)" xlink:href="#O"/><use transform="matrix(0.022222222222222223,0,0,0.022222222222222223,83.97777777777779,0)" xlink:href="#R"/></g><g id="j"><use transform="matrix(0.022222222222222223,0,0,0.022222222222222223,0,0)" xlink:href="#I"/><use transform="matrix(0.022222222222222223,0,0,0.022222222222222223,11.933333333333334,0)" xlink:href="#P"/><use transform="matrix(0.022222222222222223,0,0,0.022222222222222223,16.866666666666667,0)" xlink:href="#K"/><use transform="matrix(0.022222222222222223,0,0,0.022222222222222223,21.8,0)" xlink:href="#I"/><use transform="matrix(0.022222222222222223,0,0,0.022222222222222223,33.733333333333334,0)" xlink:href="#G"/></g><path fill="#333" d="M211-360c-3 66-2 144-2 214 0 113 44 109 107 88 9-3 24 24 12 32-17 12-62 40-140 40-68 0-111-47-111-93 1-90 3-191 3-281-24-4-71 12-71-14 0-10 6-17 22-25 33-15 118-89 154-132 12-14 33-14 32 5l-4 106h127c6 0 9 5 7 9l-10 43c-1 4-3 8-9 8H211" id="V"/><path fill="#333" d="M249 14C107 14 28-83 30-205c0-28 0-81 45-147 36-53 97-82 174-82 162 0 171 155 171 171 0 13-9 14-31 14H160c-9 116 51 182 132 182 49 0 89-23 109-55 7-12 19 4 27 6 4 2 7 7-2 24-18 37-83 106-177 106zm-88-301h96c22 0 32-5 32-20 0-44-18-87-49-87-47 0-72 37-79 107" id="W"/><path fill="#333" d="M263-47c-36 32-82 63-158 61-35 0-66-38-66-92 0-44 21-91 86-122 78-38 103-48 129-66 2-63 7-120-57-120-18 0-35 4-53 16-15 10-3 27-3 59 0 34-25 57-65 57-60-1-49-75-15-106 42-38 111-74 192-74 102-1 129 32 130 114l2 199c-7 78 28 81 52 50 10-12 15 1 24 3 4 2 7 5 3 14-9 21-39 68-101 68-39 0-76-14-95-61h-5zm-8-37v-142c-49 28-90 43-90 112 0 46 21 66 43 66 27 0 47-27 47-36" id="X"/><path fill="#333" d="M238 14C17 14-30-248 105-375c44-42 94-59 148-59 131 0 160 66 160 97 0 28-20 47-52 47-83 0-61-101-131-101-27 0-66 39-66 102s-1 107 32 170c39 75 147 70 207 26 11-8 31 12 24 26-18 34-97 81-189 81" id="Y"/><path fill="#333" d="M283-376c-38 8-76 32-76 84v216c2 42 4 43 35 41 12-1 7 17 8 27 0 7-1 11-7 11-6-3-230-3-230 0-9-1-17-42 8-38 59 10 55-30 55-83l-2-416c1-59-20-88-65-98-12-8-15-28 9-34 55-14 91-32 151-61 20-9 44-23 40 15-4 43-3 265-3 339h7c39-67 169-80 230-22 56 54 43 123 43 215 0 50-2 111-2 130 0 20 31 15 51 15 17 0 9 16 11 28 0 6-2 10-8 10 6-3-230-3-223 0-14 1-8-19-9-30-2-11 11-8 20-8 41-2 27-66 27-116 0-92 23-222-70-225" id="Z"/><g id="k"><use transform="matrix(0.017777777777777778,0,0,0.017777777777777778,0,0)" xlink:href="#V"/><use transform="matrix(0.017777777777777778,0,0,0.017777777777777778,6.062222222222222,0)" xlink:href="#W"/><use transform="matrix(0.017777777777777778,0,0,0.017777777777777778,14.079999999999998,0)" xlink:href="#X"/><use transform="matrix(0.017777777777777778,0,0,0.017777777777777778,22.186666666666667,0)" xlink:href="#Y"/><use transform="matrix(0.017777777777777778,0,0,0.017777777777777778,30.026666666666667,0)" xlink:href="#Z"/></g><g id="l"><use transform="matrix(0.017777777777777778,0,0,0.017777777777777778,0,0)" xlink:href="#V"/><use transform="matrix(0.017777777777777778,0,0,0.017777777777777778,6.062222222222222,0)" xlink:href="#Z"/><use transform="matrix(0.017777777777777778,0,0,0.017777777777777778,16.017777777777777,0)" xlink:href="#W"/></g><path fill="#333" d="M495-212C495-88 383 14 257 14 132 14 30-84 30-217c0-45 26-118 86-166 154-125 379-8 379 171zM263-28c55 0 80-81 80-191 0-116-40-173-84-173-25 0-41 7-54 27-43 66-65 338 58 337" id="aa"/><path fill="#333" d="M268-47c27 1 70-36 70-68l-1-235c0-25-18-35-43-35-23 0-16-9-17-26 0-8 2-9 12-9 59-1 123 3 178-3 6 0 10 5 9 10-3-15-6 160-6 210 0 48-1 97 2 115 9 50 13 33 51 32 17-5 11 13 15 23 1 5-1 7-5 8-54 13-106 28-162 39-29-2-15-43-23-66h-6c-20 35-78 66-132 66-40 0-67-3-105-46-62-70-28-195-38-318-2-24-22-34-34-35-29-3-21-5-22-27 0-6 2-8 11-8 57-1 118 3 171-3 7 0 12 5 11 12-2-1-4 137-4 189 0 53-8 187 68 175" id="ab"/><path fill="#333" d="M254-341c-29 0-43 65-43 77v188c-3 51 31 40 72 41 12 0 7 19 7 29 0 6-1 9-5 9C303 0 12-1 18 3c-7-1-14-38 5-38 28 0 53 6 55-24 3-44 0-138 2-196 2-52-22-70-57-88-11-3-12-22 0-26 53-20 100-47 156-65 7 0 11 6 12 12l9 78h7c31-66 75-96 119-96 30 0 53 23 53 58 0 27-31 57-64 57-25 0-39-16-61-16" id="ac"/><path fill="#333" d="M43-284c0-86 82-150 162-150 54 0 87 12 105 21 33 16 19 60 32 93-1 12-22 21-32 14-39-32-52-89-118-89-30 0-59 20-59 54 0 35 13 48 88 65 71 16 135 56 135 137 0 89-70 153-179 153C121 14 72-6 60-15 47-44 48-89 41-124c2-10 25-17 32-9 36 43 49 110 127 110 37 0 59-26 59-61 0-40-29-53-94-73-71-21-122-55-122-127" id="ad"/><g id="m"><use transform="matrix(0.017777777777777778,0,0,0.017777777777777778,0,0)" xlink:href="#Y"/><use transform="matrix(0.017777777777777778,0,0,0.017777777777777778,7.751111111111111,0)" xlink:href="#aa"/><use transform="matrix(0.017777777777777778,0,0,0.017777777777777778,17.084444444444443,0)" xlink:href="#ab"/><use transform="matrix(0.017777777777777778,0,0,0.017777777777777778,26.808888888888887,0)" xlink:href="#ac"/><use transform="matrix(0.017777777777777778,0,0,0.017777777777777778,33.315555555555555,0)" xlink:href="#ad"/><use transform="matrix(0.017777777777777778,0,0,0.017777777777777778,40.21333333333333,0)" xlink:href="#W"/></g><path fill="#3a414a" d="M270 209c168 0 239-85 240-253v-473h-80c-1 24 1 51-1 74-26-52-81-85-154-86-163 4-239 113-239 273C36-101 112 5 267 5c76 0 136-38 163-93 5 132-30 229-155 229-67 0-126-22-134-84H56c9 110 100 152 214 152zm156-478c0 111-42 200-154 200-109 0-146-89-146-197 0-109 44-188 153-188 105 0 147 81 147 185" id="ae"/><g id="n"><use transform="matrix(0.022222222222222223,0,0,0.022222222222222223,0,0)" xlink:href="#I"/><use transform="matrix(0.022222222222222223,0,0,0.022222222222222223,11.933333333333334,0)" xlink:href="#G"/><use transform="matrix(0.022222222222222223,0,0,0.022222222222222223,23.044444444444444,0)" xlink:href="#G"/><use transform="matrix(0.022222222222222223,0,0,0.022222222222222223,34.15555555555555,0)" xlink:href="#K"/><use transform="matrix(0.022222222222222223,0,0,0.022222222222222223,39.08888888888889,0)" xlink:href="#ae"/><use transform="matrix(0.022222222222222223,0,0,0.022222222222222223,51.84444444444445,0)" xlink:href="#M"/><use transform="matrix(0.022222222222222223,0,0,0.022222222222222223,64.2,0)" xlink:href="#N"/><use transform="matrix(0.022222222222222223,0,0,0.022222222222222223,83.15555555555557,0)" xlink:href="#O"/><use transform="matrix(0.022222222222222223,0,0,0.022222222222222223,95.08888888888892,0)" xlink:href="#M"/><use transform="matrix(0.022222222222222223,0,0,0.022222222222222223,107.44444444444444,0)" xlink:href="#H"/><use transform="matrix(0.022222222222222223,0,0,0.022222222222222223,114.44444444444444,0)" xlink:href="#G"/></g><g id="o"><use transform="matrix(0.022222222222222223,0,0,0.022222222222222223,0,0)" xlink:href="#I"/><use transform="matrix(0.022222222222222223,0,0,0.022222222222222223,11.933333333333334,0)" xlink:href="#K"/><use transform="matrix(0.022222222222222223,0,0,0.022222222222222223,16.866666666666667,0)" xlink:href="#L"/></g><g id="p"><use transform="matrix(0.022222222222222223,0,0,0.022222222222222223,0,0)" xlink:href="#G"/><use transform="matrix(0.022222222222222223,0,0,0.022222222222222223,11.11111111111111,0)" xlink:href="#T"/><use transform="matrix(0.022222222222222223,0,0,0.022222222222222223,23.044444444444444,0)" xlink:href="#U"/><use transform="matrix(0.022222222222222223,0,0,0.022222222222222223,35.8,0)" xlink:href="#R"/><use transform="matrix(0.022222222222222223,0,0,0.022222222222222223,42.8,0)" xlink:href="#O"/></g><path fill="#3a414a" d="M576 0l165-517h-88c-40 140-76 285-118 423L427-517h-93c-36 140-67 285-106 423L111-517H17L183 0h92c36-136 67-277 106-411L486 0h90" id="af"/><path fill="#3a414a" d="M314-529c-80 2-137 33-165 88v-273H64V0h85v-292c3-100 51-160 153-162 64-1 106 40 105 104V0h85v-340c1-123-54-189-178-189" id="ag"/><g id="q"><use transform="matrix(0.022222222222222223,0,0,0.022222222222222223,0,0)" xlink:href="#af"/><use transform="matrix(0.022222222222222223,0,0,0.022222222222222223,16.844444444444445,0)" xlink:href="#O"/><use transform="matrix(0.022222222222222223,0,0,0.022222222222222223,28.77777777777778,0)" xlink:href="#K"/><use transform="matrix(0.022222222222222223,0,0,0.022222222222222223,33.71111111111111,0)" xlink:href="#ae"/><use transform="matrix(0.022222222222222223,0,0,0.022222222222222223,46.46666666666667,0)" xlink:href="#ag"/><use transform="matrix(0.022222222222222223,0,0,0.022222222222222223,58.82222222222222,0)" xlink:href="#H"/></g><path fill="#3a414a" d="M0 74v50h500V74H0" id="ah"/><g id="r"><use transform="matrix(0.022222222222222223,0,0,0.022222222222222223,0,0)" xlink:href="#T"/><use transform="matrix(0.022222222222222223,0,0,0.022222222222222223,11.933333333333334,0)" xlink:href="#U"/><use transform="matrix(0.022222222222222223,0,0,0.022222222222222223,24.68888888888889,0)" xlink:href="#S"/><use transform="matrix(0.022222222222222223,0,0,0.022222222222222223,37.044444444444444,0)" xlink:href="#R"/><use transform="matrix(0.022222222222222223,0,0,0.022222222222222223,44.44444444444444,0)" xlink:href="#G"/><use transform="matrix(0.022222222222222223,0,0,0.022222222222222223,55.55555555555556,0)" xlink:href="#O"/><use transform="matrix(0.022222222222222223,0,0,0.022222222222222223,67.4888888888889,0)" xlink:href="#ah"/><use transform="matrix(0.022222222222222223,0,0,0.022222222222222223,78.60000000000001,0)" xlink:href="#K"/><use transform="matrix(0.022222222222222223,0,0,0.022222222222222223,83.53333333333335,0)" xlink:href="#L"/></g><path fill="#333" d="M129-12c-20 9-41 37-67 22-4-1-5-3-4-8 6-147 2-383 3-545 0-76-16-83-58-92-19-4-19-25-2-30 49-16 113-38 152-57 17-8 25-15 35-15s12 7 12 17c0 20-10 255-10 334 36-36 84-48 134-48 65 0 117 42 142 85 85 147-22 363-200 363-66 0-104-12-137-26zm62-332c12 122-39 320 70 320 29 0 64-10 83-52 21-46 16-71 16-111 0-132-55-176-107-176-18 0-42 6-62 19" id="ai"/><path fill="#333" d="M212-719c-1 199 1 459 1 653 0 33 28 33 59 31 17-1 9 15 11 28 0 6-2 10-6 10C285 0 3 0 14 3 6 2-2-39 20-35c38-1 57 9 57-43 0-150 2-359-2-496-1-41-37-53-73-64-11-3-14-31 1-34 58-13 158-49 200-65 6 0 10 5 9 18" id="aj"/><path fill="#333" d="M285-370c-46 3-70 26-71 97l-2 205c2 24 6 36 29 33 15-2 8 17 10 29 0 6-2 9-7 9 9-3-224-3-209 0-10 0-13-38 3-38 20 0 43 3 43-20v-222c0-34-22-51-49-62-11-5-10-25 2-30 51-20 96-48 151-65 21 5 17 37 25 55h8c28-28 68-56 125-55 39 0 76 5 103 28 66 54 45 122 45 220 0 34-4 81-4 116 0 44 19 35 51 35 17 0 9 15 11 27 0 7-2 11-8 11 17-3-229-4-223 0-14-2-15-50 16-38 7 0 15-5 18-23 8-50 2-146 6-211 4-57-25-105-73-101" id="ak"/><path fill="#333" d="M476-318c-35 1-40-53-78-23 20 50 17 133-33 173-61 48-113 53-194 45-13 8-37 26-37 46 0 35 29 38 137 35 68-2 120 1 168 40 73 60 62 154-9 212-37 30-113 62-214 62-83 0-209-24-209-109 0-50 56-86 103-105v-5C64 39 41 8 41-27c0-58 56-90 89-106v-3c-43-25-88-67-88-152 0-65 52-146 194-146 88 0 132 46 141 56 38-37 141-60 143 17 0 23-21 43-44 43zm-314 65c0 51 17 97 68 96 44 0 59-67 59-144 0-70-4-86-58-95-58 7-69 68-69 143zm-48 392c0 68 62 94 136 94 66 0 131-35 131-85 0-55-39-85-130-81l-87 4c-29 7-50 38-50 68" id="al"/><g id="s"><use transform="matrix(0.017777777777777778,0,0,0.017777777777777778,0,0)" xlink:href="#ai"/><use transform="matrix(0.017777777777777778,0,0,0.017777777777777778,9.333333333333334,0)" xlink:href="#W"/><use transform="matrix(0.017777777777777778,0,0,0.017777777777777778,17.35111111111111,0)" xlink:href="#aj"/><use transform="matrix(0.017777777777777778,0,0,0.017777777777777778,22.506666666666664,0)" xlink:href="#aa"/><use transform="matrix(0.017777777777777778,0,0,0.017777777777777778,31.839999999999996,0)" xlink:href="#ak"/><use transform="matrix(0.017777777777777778,0,0,0.017777777777777778,41.88444444444445,0)" xlink:href="#al"/></g><g id="t"><use transform="matrix(0.017777777777777778,0,0,0.017777777777777778,0,0)" xlink:href="#V"/><use transform="matrix(0.017777777777777778,0,0,0.017777777777777778,6.062222222222222,0)" xlink:href="#aa"/></g><g id="u"><use transform="matrix(0.022222222222222223,0,0,0.022222222222222223,0,0)" xlink:href="#G"/><use transform="matrix(0.022222222222222223,0,0,0.022222222222222223,11.11111111111111,0)" xlink:href="#H"/><use transform="matrix(0.022222222222222223,0,0,0.022222222222222223,18.11111111111111,0)" xlink:href="#S"/><use transform="matrix(0.022222222222222223,0,0,0.022222222222222223,30.46666666666667,0)" xlink:href="#L"/><use transform="matrix(0.022222222222222223,0,0,0.022222222222222223,43.644444444444446,0)" xlink:href="#O"/><use transform="matrix(0.022222222222222223,0,0,0.022222222222222223,55.57777777777778,0)" xlink:href="#M"/><use transform="matrix(0.022222222222222223,0,0,0.022222222222222223,67.93333333333334,0)" xlink:href="#H"/><use transform="matrix(0.022222222222222223,0,0,0.022222222222222223,74.93333333333334,0)" xlink:href="#ah"/><use transform="matrix(0.022222222222222223,0,0,0.022222222222222223,86.04444444444445,0)" xlink:href="#R"/><use transform="matrix(0.022222222222222223,0,0,0.022222222222222223,93.04444444444445,0)" xlink:href="#O"/><use transform="matrix(0.022222222222222223,0,0,0.022222222222222223,104.97777777777779,0)" xlink:href="#ae"/></g><g id="v"><use transform="matrix(0.022222222222222223,0,0,0.022222222222222223,0,0)" xlink:href="#G"/><use transform="matrix(0.022222222222222223,0,0,0.022222222222222223,11.11111111111111,0)" xlink:href="#H"/><use transform="matrix(0.022222222222222223,0,0,0.022222222222222223,18.11111111111111,0)" xlink:href="#S"/><use transform="matrix(0.022222222222222223,0,0,0.022222222222222223,30.46666666666667,0)" xlink:href="#L"/><use transform="matrix(0.022222222222222223,0,0,0.022222222222222223,43.644444444444446,0)" xlink:href="#O"/><use transform="matrix(0.022222222222222223,0,0,0.022222222222222223,55.57777777777778,0)" xlink:href="#M"/><use transform="matrix(0.022222222222222223,0,0,0.022222222222222223,67.93333333333334,0)" xlink:href="#H"/><use transform="matrix(0.022222222222222223,0,0,0.022222222222222223,74.93333333333334,0)" xlink:href="#ah"/><use transform="matrix(0.022222222222222223,0,0,0.022222222222222223,86.04444444444445,0)" xlink:href="#G"/><use transform="matrix(0.022222222222222223,0,0,0.022222222222222223,97.15555555555557,0)" xlink:href="#T"/><use transform="matrix(0.022222222222222223,0,0,0.022222222222222223,109.08888888888889,0)" xlink:href="#U"/><use transform="matrix(0.022222222222222223,0,0,0.022222222222222223,121.84444444444446,0)" xlink:href="#R"/><use transform="matrix(0.022222222222222223,0,0,0.022222222222222223,128.84444444444446,0)" xlink:href="#O"/></g><path fill="#333" d="M102-142c-14-17-68-15-54 18 24 26 83 17 83 72 0 62-72 62-120 47v-45h12c4 23 16 37 43 37 35 0 39-37 9-46-31-9-65-19-64-61 0-52 59-55 108-45v43h-11" id="am"/><path fill="#333" d="M109-18c15 0 31-2 42-6v14c-11 9-31 13-51 13-59 0-86-28-88-86-3-75 66-101 135-80v48h-13c-3-20-7-40-34-37-51 7-55 138 9 134" id="an"/><path fill="#333" d="M90-170c54-1 76 32 76 87 1 56-23 87-77 87-53 0-75-32-75-87s23-86 76-87zM89-14c28-2 26-38 26-69s3-69-26-69c-27 0-24 39-24 69s-3 66 24 69" id="ao"/><path fill="#333" d="M132-132c-21 0-37 9-50 16v100l26 4V0H10v-12l21-4v-133l-21-5v-11h69l2 34c17-18 35-41 71-40v61c-17 3-14-14-20-22" id="ap"/><path fill="#333" d="M12-83c0-55 22-85 75-86 52-1 66 33 63 88H64c-1 37 6 64 44 63 14 0 28-4 39-6 3 28-28 25-55 27-57 4-80-31-80-86zm90-17c2-26 0-63-27-48-10 9-11 28-11 48h38" id="aq"/><g id="w"><use transform="matrix(0.04938271604938272,0,0,0.04938271604938272,0,0)" xlink:href="#am"/><use transform="matrix(0.04938271604938272,0,0,0.04938271604938272,6.913580246913581,0)" xlink:href="#an"/><use transform="matrix(0.04938271604938272,0,0,0.04938271604938272,14.765432098765434,0)" xlink:href="#ao"/><use transform="matrix(0.04938271604938272,0,0,0.04938271604938272,23.654320987654323,0)" xlink:href="#ap"/><use transform="matrix(0.04938271604938272,0,0,0.04938271604938272,31.16049382716049,0)" xlink:href="#aq"/></g><path fill="#333" d="M107-230c-31-13-29 30-29 65h34v18H78v131l27 4V0H10v-12l18-4v-131H3v-12l25-7c-8-66 31-98 95-84v39h-11" id="ar"/><g id="x"><use transform="matrix(0.04938271604938272,0,0,0.04938271604938272,0,0)" xlink:href="#ao"/><use transform="matrix(0.04938271604938272,0,0,0.04938271604938272,8.88888888888889,0)" xlink:href="#ar"/></g><path fill="#333" d="M31-163c51-5 127-20 127 40v107l17 4V0h-61l-4-13C82 13 12 12 12-46c0-51 46-52 95-53 9-45-22-69-57-44l-7 20H31v-40zM62-47c0 30 26 34 45 23v-59c-28 0-45 6-45 36" id="as"/><path fill="#333" d="M77-16l18 4V0H8v-12l18-4v-133l-17-5v-11h68v149zM51-196c-16 0-27-10-27-27s10-27 27-27 27 11 27 27c0 17-10 27-27 27" id="at"/><path fill="#333" d="M9 41c2-18 18-26 32-33C29 1 16-9 16-28l29-33c-21-9-31-25-31-51-2-56 61-65 111-53l39-20c13 12-9 24-14 36 35 54-17 114-90 92-17 34 27 28 56 28 36-1 61 12 60 46-2 46-39 62-91 62-38 0-71-6-76-38zm35-3c6 35 97 29 94-9-2-28-50-14-78-17-8 7-15 14-16 26zm20-150c0 22 4 40 23 40 20 0 24-17 24-40 0-24-4-40-24-40-19 0-23 17-23 40" id="au"/><path fill="#333" d="M127-114c3-31-26-38-50-25v123l15 4V0H10v-12l16-4v-133l-16-5v-11h64l2 14c31-23 102-32 102 30v105l17 4V0h-82v-12l14-4v-98" id="av"/><path fill="#333" d="M126-114c3-31-27-37-49-25v123l15 4V0H10v-12l16-4v-133l-16-5v-11h64l2 14c24-16 81-33 96 3 30-24 105-39 105 27v105l17 4V0h-82v-12l14-4v-98c4-33-27-37-51-24 5 35 0 82 2 122l17 4V0h-83v-12l15-4v-98" id="aw"/><path fill="#333" d="M78-41c-2 24 21 26 40 20C122 3 98 2 77 4 5 10 32-84 27-147H6v-11l25-7 21-38h26v38h35v18H78v106" id="ax"/><g id="y"><use transform="matrix(0.04938271604938272,0,0,0.04938271604938272,0,0)" xlink:href="#as"/><use transform="matrix(0.04938271604938272,0,0,0.04938271604938272,8.88888888888889,0)" xlink:href="#am"/><use transform="matrix(0.04938271604938272,0,0,0.04938271604938272,15.80246913580247,0)" xlink:href="#am"/><use transform="matrix(0.04938271604938272,0,0,0.04938271604938272,22.71604938271605,0)" xlink:href="#at"/><use transform="matrix(0.04938271604938272,0,0,0.04938271604938272,27.654320987654323,0)" xlink:href="#au"/><use transform="matrix(0.04938271604938272,0,0,0.04938271604938272,36.543209876543216,0)" xlink:href="#av"/><use transform="matrix(0.04938271604938272,0,0,0.04938271604938272,46.41975308641976,0)" xlink:href="#aw"/><use transform="matrix(0.04938271604938272,0,0,0.04938271604938272,61.18518518518519,0)" xlink:href="#aq"/><use transform="matrix(0.04938271604938272,0,0,0.04938271604938272,69.03703703703704,0)" xlink:href="#av"/><use transform="matrix(0.04938271604938272,0,0,0.04938271604938272,78.91358024691358,0)" xlink:href="#ax"/></g><g id="z"><use transform="matrix(0.017777777777777778,0,0,0.017777777777777778,0,0)" xlink:href="#ai"/><use transform="matrix(0.017777777777777778,0,0,0.017777777777777778,9.333333333333334,0)" xlink:href="#W"/></g><path fill="#333" d="M138-648c104 0 96 133-5 138-42 2-73-32-73-72 0-33 34-66 78-66zM279-26c-1 11 5 30-9 29C281 1 35 0 21 3 11 6 6-35 23-35c25 0 55 10 56-20 3-77 0-152 0-229 0-28-6-49-48-63-16-5-19-27-1-33 59-17 114-40 176-54 8 0 11 5 10 12-3 53-2 284-1 361 0 36 25 24 54 26 8 0 10 3 10 9" id="ay"/><path fill="#333" d="M93-34C-41-160 56-434 248-434c33 0 62 6 81 13l-4-202c-1-28-12-45-65-57-10-2-12-33 1-34 75-8 147-12 195-23 6 0 10 7 9 18-7 95-8 406-6 557 1 60-10 115 55 103 19-3 15 10 19 22 1 6-1 9-7 11L376 12c-6 2-11-1-14-9l-16-50C276 19 174 42 93-34zm180-18c46 0 59-18 58-68l-3-182c7-59-42-93-84-93-59 0-84 79-84 143 0 118 51 200 113 200" id="az"/><g id="A"><use transform="matrix(0.017777777777777778,0,0,0.017777777777777778,0,0)" xlink:href="#ac"/><use transform="matrix(0.017777777777777778,0,0,0.017777777777777778,6.417777777777777,0)" xlink:href="#W"/><use transform="matrix(0.017777777777777778,0,0,0.017777777777777778,14.435555555555556,0)" xlink:href="#al"/><use transform="matrix(0.017777777777777778,0,0,0.017777777777777778,23.715555555555557,0)" xlink:href="#ay"/><use transform="matrix(0.017777777777777778,0,0,0.017777777777777778,28.871111111111112,0)" xlink:href="#ad"/><use transform="matrix(0.017777777777777778,0,0,0.017777777777777778,35.76888888888889,0)" xlink:href="#V"/><use transform="matrix(0.017777777777777778,0,0,0.017777777777777778,41.83111111111111,0)" xlink:href="#W"/><use transform="matrix(0.017777777777777778,0,0,0.017777777777777778,49.848888888888894,0)" xlink:href="#ac"/><use transform="matrix(0.017777777777777778,0,0,0.017777777777777778,56.26666666666667,0)" xlink:href="#W"/><use transform="matrix(0.017777777777777778,0,0,0.017777777777777778,64.28444444444445,0)" xlink:href="#az"/></g><path fill="#333" d="M44 272c-35 0-62-21-62-58 0-52 50-71 91-46 12 8 24 9 32 4 10-7 62-116 74-151-8-35-133-347-140-363-15-31-18-46-51-43-14 1-6-20-8-31 0-4 1-7 8-7-18 3 222 4 223 0 15-1 7 18 9 30 2 11-11 7-20 8-11 0-20 7-18 23 3 17 59 210 66 232h5c25-57 79-196 85-215 9-34-10-40-41-40-13 0-5-19-7-30 0-5 1-8 6-8 3 3 154 4 166 0 11 1 4 19 6 29 2 12-7 9-16 9-11 0-24 5-37 20-22 24-233 495-277 571-16 27-38 66-94 66" id="aA"/><g id="B"><use transform="matrix(0.017777777777777778,0,0,0.017777777777777778,0,0)" xlink:href="#ai"/><use transform="matrix(0.017777777777777778,0,0,0.017777777777777778,9.422222222222222,0)" xlink:href="#aA"/></g><path fill="#333" d="M-15-385c-10 0-6-20-6-30 0-7 2-8 11-8-31 2 240 4 237 0 16-2 9 16 10 28 2 21-51 1-46 27 14 78 54 155 80 224h6c8-17 62-140 80-196 10-32-10-50-43-45-6-4-8-35 2-38 0 3 177 4 182 0 15-3 7 18 9 28 3 15-12 10-22 10-14 0-36 1-46 15-58 78-134 268-182 365-6 11-12 20-26 20-13 0-21-9-29-25-56-108-102-235-153-338-19-38-26-37-64-37" id="aB"/><g id="C"><use transform="matrix(0.017777777777777778,0,0,0.017777777777777778,0,0)" xlink:href="#Z"/><use transform="matrix(0.017777777777777778,0,0,0.017777777777777778,9.955555555555556,0)" xlink:href="#X"/><use transform="matrix(0.017777777777777778,0,0,0.017777777777777778,18.062222222222225,0)" xlink:href="#aB"/><use transform="matrix(0.017777777777777778,0,0,0.017777777777777778,26.382222222222225,0)" xlink:href="#W"/></g><g id="D"><use transform="matrix(0.017777777777777778,0,0,0.017777777777777778,0,0)" xlink:href="#ad"/><use transform="matrix(0.017777777777777778,0,0,0.017777777777777778,6.897777777777778,0)" xlink:href="#Y"/><use transform="matrix(0.017777777777777778,0,0,0.017777777777777778,14.648888888888889,0)" xlink:href="#aa"/><use transform="matrix(0.017777777777777778,0,0,0.017777777777777778,23.982222222222223,0)" xlink:href="#ac"/><use transform="matrix(0.017777777777777778,0,0,0.017777777777777778,30.400000000000006,0)" xlink:href="#W"/></g><g id="E"><use transform="matrix(0.017777777777777778,0,0,0.017777777777777778,0,0)" xlink:href="#W"/><use transform="matrix(0.017777777777777778,0,0,0.017777777777777778,8.017777777777777,0)" xlink:href="#ak"/><use transform="matrix(0.017777777777777778,0,0,0.017777777777777778,18.06222222222222,0)" xlink:href="#ac"/><use transform="matrix(0.017777777777777778,0,0,0.017777777777777778,24.48,0)" xlink:href="#aa"/><use transform="matrix(0.017777777777777778,0,0,0.017777777777777778,33.81333333333333,0)" xlink:href="#aj"/><use transform="matrix(0.017777777777777778,0,0,0.017777777777777778,39.05777777777778,0)" xlink:href="#aj"/><use transform="matrix(0.017777777777777778,0,0,0.017777777777777778,44.21333333333334,0)" xlink:href="#W"/><use transform="matrix(0.017777777777777778,0,0,0.017777777777777778,52.23111111111112,0)" xlink:href="#az"/></g><g id="F"><use transform="matrix(0.017777777777777778,0,0,0.017777777777777778,0,0)" xlink:href="#ay"/><use transform="matrix(0.017777777777777778,0,0,0.017777777777777778,5.155555555555556,0)" xlink:href="#ak"/></g></defs></g></svg>